<?xml version="1.0" encoding="utf-8"?>
<!-- Generator: Adobe Illustrator 19.0.0, SVG Export Plug-In . SVG Version: 6.00 Build 0)  -->
<svg version="1.1" id="Layer_1" xmlns="http://www.w3.org/2000/svg" xmlns:xlink="http://www.w3.org/1999/xlink" x="0px" y="0px"
	 viewBox="-383 295 24 24" style="enable-background:new -383 295 24 24;" xml:space="preserve">
<style type="text/css">
	.st0{fill:#FFFFFF;}
</style>
<path class="st0" d="M-362,305h-8c-1.7,0-3,1.3-3,3v8c0,1.7,1.3,3,3,3h8c1.7,0,3-1.3,3-3v-8C-359,306.3-360.3,305-362,305z
	 M-363.9,316l-0.7-1.8h-3l-0.7,1.8h-1.7l3-8h1.6l3.1,8H-363.9z M-366,309.9l1.1,3h-2.1C-367.1,312.9-366,309.9-366,309.9z
	 M-377.9,302.9c0,0.6,0.1,1.1,0.2,1.6C-378.9,304.7-378.9,303.5-377.9,302.9z M-369,298v5h-1c-0.7,0-1.4,0.2-2.1,0.5
	c-0.2-0.8-0.8-1.5-1.7-2c0.1-0.3,0.1-0.5,0.2-0.7l-1.3-0.3c0,0.1-0.1,0.3-0.1,0.6c-0.5-0.1-0.9-0.1-1.4,0c0-0.3,0-0.7,0.1-1h1.5
	v-1.3h-1.3c0.1-0.3,0.1-0.5,0.2-0.7l-1.3-0.4c-0.1,0.3-0.2,0.6-0.3,1.1h-1.5v1.3h1.3c0,0.4-0.1,0.8-0.1,1.3
	c-1.5,0.5-2.1,1.6-2.1,2.5c0,1.1,0.9,2.1,2.3,2c1.7-0.2,2.9-1.5,3.5-3.1c0.9,0.5,0.8,1.2,0.8,1.6c-1,0.9-1.6,2.2-1.6,3.6v1h-5
	c-1.7,0-3-1.3-3-3v-8c0-1.7,1.3-3,3-3h8C-370.3,295-369,296.3-369,298z M-376.5,302.5c0.3,0,0.7-0.1,1,0c-0.2,0.5-0.5,0.9-0.9,1.3
	C-376.4,303.4-376.5,302.9-376.5,302.5z"/>
</svg>
